# xmcd
#
# Track frame offsets:
#	150
#	13775
#	33507
#	49770
#	66100
#	83447
#	102475
#	118870
#	133267
#	146830
#
# Disc length: 2231 seconds
#
# Revision: 0
# Processed by: cddbd v1.4PL0 Copyright (c) Steve Scherf et al.
# Submitted via: EasyCDDAExtractor 4.6.9.1
#
DISCID=8e08b50a
DTITLE=Gatlin, Larry - In My Life
DYEAR=1900
DGENRE=Country
TTITLE0=Fill Me
TTITLE1=I Will Lift My Eyes
TTITLE2=Heaven (Eternity There)
TTITLE3=One Dream Per Customer
TTITLE4=God, You've Got To Be Joking
TTITLE5=In My Life
TTITLE6=Hey, You
TTITLE7=God Only Knows (You Happened To Me)
TTITLE8=Fools Bar And Grille
TTITLE9=The Old Song
EXTD=
EXTT0=
EXTT1=
EXTT2=
EXTT3=
EXTT4=
EXTT5=
EXTT6=
EXTT7=
EXTT8=
EXTT9=
PLAYORDER=
